<?xml version="1.0" standalone="no"?><!DOCTYPE svg PUBLIC "-//W3C//DTD SVG 1.1//EN" "http://www.w3.org/Graphics/SVG/1.1/DTD/svg11.dtd"><svg t="1542253484456" class="icon" style="" viewBox="0 0 1024 1024" version="1.1" xmlns="http://www.w3.org/2000/svg" p-id="8131" xmlns:xlink="http://www.w3.org/1999/xlink" width="64" height="64"><defs><style type="text/css"></style></defs><path d="M856.522352 605.090635c93.65358 0 167.245847 73.140707 167.245847 166.228332s-73.592267 166.234353-167.245847 166.234353-167.245847-73.140707-167.245848-166.234353c0-66.493741 40.134668-126.334496 113.726936-159.581366L729.411173 472.103153c-46.82378 39.893836-120.416047 66.48772-173.922918 66.487721-40.140689 0-100.348713-6.622883-133.80029-39.887816l-73.592267 132.981461c60.208023 33.246871 93.665622 106.393598 93.665622 172.881319 0 119.68753-100.348713 219.428141-220.76476 219.428141S0.231801 924.259388 0.231801 804.571859s100.348713-219.434162 220.764759-219.434163c26.756446 0 53.518912 6.652987 80.269337 13.299953l80.281379-132.987482c-60.208023-46.546823-93.65358-119.68753-93.653581-199.481224 0-146.305497 120.416047-265.968943 267.58854-265.968943s267.588539 119.68753 267.588539 265.968943c0 66.493741-20.073355 126.334496-60.208024 172.88734L849.827219 605.090635h6.689112" p-id="8132"></path></svg>