<?xml version="1.0" standalone="no"?><!DOCTYPE svg PUBLIC "-//W3C//DTD SVG 1.1//EN" "http://www.w3.org/Graphics/SVG/1.1/DTD/svg11.dtd"><svg t="1542017989333" class="icon" style="" viewBox="0 0 1024 1024" version="1.1" xmlns="http://www.w3.org/2000/svg" p-id="12553" xmlns:xlink="http://www.w3.org/1999/xlink" width="64" height="64"><defs><style type="text/css"></style></defs><path d="M694.144 349.824l192.192 0L886.336 157.632l-192.192 0L694.144 349.824zM732.544 196.032l115.328 0 0 115.392-115.328 0L732.544 196.032z" p-id="12554" fill="#ffffff"></path><path d="M153.216 349.824l195.456 0L348.672 157.632 153.216 157.632 153.216 349.824zM192.256 196.032l117.248 0 0 115.392L192.256 311.424 192.256 196.032z" p-id="12555" fill="#ffffff"></path><path d="M636.416 407.424l96.64 0 0 115.392-96.64 0 0-115.392Z" p-id="12556" fill="#ffffff"></path><path d="M732.992 522.752l115.392 0 0 115.392-115.392 0 0-115.392Z" p-id="12557" fill="#ffffff"></path><path d="M191.616 734.208l115.328 0 0 115.392-115.328 0 0-115.392Z" p-id="12558" fill="#ffffff"></path><path d="M694.144 157.568l192.128 0 0 192.192-192.128 0 0-192.192Z" p-id="12559" fill="#ffffff"></path><path d="M310.144 638.08 79.488 638.08l0 326.72 326.72 0L406.208 638.08 406.208 522.816 310.144 522.816 310.144 638.08zM348.608 887.936 156.352 887.936l0-192.128 192.256 0L348.608 887.936z" p-id="12560" fill="#ffffff"></path><path d="M406.272 99.968 79.488 99.968l0 307.52 0 115.328 115.392 0L194.88 407.488l211.392 0L521.6 407.488 521.6 311.36 406.272 311.36 406.272 99.968zM348.608 349.824 156.352 349.824 156.352 157.568l192.256 0L348.608 349.824z" p-id="12561" fill="#ffffff"></path><path d="M636.992 99.968 521.6 99.968l0 96.064 115.392 0 0 211.456 96 0 0 115.328 115.392 0L848.384 407.488l96.128 0L944.512 99.968 636.992 99.968zM886.72 349.824l-192.128 0L694.592 157.568l192.128 0L886.72 349.824z" p-id="12562" fill="#ffffff"></path><path d="M521.6 849.536l115.392 0 0 115.264-115.392 0 0-115.264Z" p-id="12563" fill="#ffffff"></path><path d="M521.6 407.488l115.392 0 0 115.328-115.392 0 0-115.328Z" p-id="12564" fill="#ffffff"></path><path d="M829.12 638.08 732.992 638.08 732.992 522.816 636.992 522.816 636.992 638.08 521.6 638.08 521.6 734.208 732.992 734.208 732.992 849.536 732.992 964.8 944.512 964.8 944.512 849.536 848.384 849.536 848.384 734.208 944.512 734.208 944.512 638.08 944.512 522.816 848.384 522.816 848.384 638.08Z" p-id="12565" fill="#ffffff"></path></svg>