<?xml version="1.0" standalone="no"?><!DOCTYPE svg PUBLIC "-//W3C//DTD SVG 1.1//EN" "http://www.w3.org/Graphics/SVG/1.1/DTD/svg11.dtd"><svg t="1542159518884" class="icon" style="" viewBox="0 0 1024 1024" version="1.1" xmlns="http://www.w3.org/2000/svg" p-id="1880" xmlns:xlink="http://www.w3.org/1999/xlink" width="64" height="64"><defs><style type="text/css"></style></defs><path d="M281.6 25.6h-192c-12.8 0-25.6 12.8-25.6 25.6v179.2c0 12.8 12.8 25.6 25.6 25.6s25.6-12.8 25.6-25.6V83.2h160c12.8 0 25.6-12.8 25.6-25.6S294.4 25.6 281.6 25.6zM928 25.6h-179.2c-12.8 0-25.6 12.8-25.6 25.6s12.8 25.6 25.6 25.6h160v160c0 12.8 12.8 25.6 25.6 25.6s25.6-12.8 25.6-25.6V51.2c-6.4-12.8-19.2-25.6-32-25.6zM928 691.2c-12.8 0-25.6 12.8-25.6 25.6v160h-160c-12.8 0-25.6 12.8-25.6 25.6s12.8 25.6 25.6 25.6h179.2c12.8 0 25.6-12.8 25.6-25.6v-179.2c6.4-19.2-6.4-32-19.2-32zM275.2 876.8H121.6v-160c0-12.8-12.8-25.6-25.6-25.6s-32 12.8-32 25.6V896c0 12.8 12.8 25.6 25.6 25.6h179.2c12.8 0 25.6-6.4 25.6-25.6 0-12.8-12.8-19.2-19.2-19.2z" p-id="1881" fill="#2c2c2c"></path><path d="M198.4 172.8v620.8H832V172.8H198.4z m512 339.2H320c-25.6 0-38.4-12.8-38.4-38.4s12.8-38.4 38.4-38.4h390.4c25.6 0 38.4 12.8 38.4 38.4s-25.6 38.4-38.4 38.4z" p-id="1882" fill="#2c2c2c"></path></svg>