<?xml version="1.0" standalone="no"?><!DOCTYPE svg PUBLIC "-//W3C//DTD SVG 1.1//EN" "http://www.w3.org/Graphics/SVG/1.1/DTD/svg11.dtd"><svg t="1543404283125" class="icon" style="" viewBox="0 0 1024 1024" version="1.1" xmlns="http://www.w3.org/2000/svg" p-id="2629" xmlns:xlink="http://www.w3.org/1999/xlink" width="16" height="16"><defs><style type="text/css"></style></defs><path d="M512 1024C229.230234 1024 0 794.769766 0 512 0 229.230234 229.230234 0 512 0 794.769766 0 1024 229.230234 1024 512 1024 794.769766 794.769766 1024 512 1024ZM512 921.6C738.215834 921.6 921.6 738.215834 921.6 512 921.6 285.784166 738.215834 102.4 512 102.4 285.784166 102.4 102.4 285.784166 102.4 512 102.4 738.215834 285.784166 921.6 512 921.6ZM563.2 358.007654C563.2 329.947392 540.474112 307.2 512 307.2 483.723008 307.2 460.8 329.91831 460.8 358.390118L460.8 522.069146C460.8 544.785101 477.652326 570.180454 498.374349 578.763827L510.62953 583.840051C531.381248 592.435712 561.119744 586.487962 577.275187 570.33257L765.321011 382.286694C785.374413 362.233293 785.561293 329.907149 765.427046 309.772954 745.432218 289.778074 712.697293 290.09495 693.198643 309.5936L563.2 439.592243 563.2 358.007654Z" p-id="2630" fill="#2c2c2c"></path></svg>