<?xml version="1.0" standalone="no"?><!DOCTYPE svg PUBLIC "-//W3C//DTD SVG 1.1//EN" "http://www.w3.org/Graphics/SVG/1.1/DTD/svg11.dtd"><svg t="1548041722975" class="icon" style="" viewBox="0 0 1027 1024" version="1.1" xmlns="http://www.w3.org/2000/svg" p-id="1938" xmlns:xlink="http://www.w3.org/1999/xlink" width="64.1875" height="64"><defs><style type="text/css"></style></defs><path d="M585.6 585.6v44.8c0 16-12.8 28.8-28.8 28.8h-89.6c-16 0-28.8-12.8-28.8-28.8v-44.8H0V896c0 32 25.6 57.6 57.6 57.6h912c32 0 57.6-25.6 57.6-57.6v-310.4H585.6zM966.4 220.8h-236.8V128c0-32-25.6-57.6-57.6-57.6H348.8c-32 0-57.6 25.6-57.6 57.6v89.6H57.6C25.6 220.8 0 243.2 0 275.2V512h438.4v-44.8c0-16 12.8-28.8 28.8-28.8h89.6c16 0 28.8 12.8 28.8 28.8V512H1024V275.2c0-32-25.6-54.4-57.6-54.4z m-307.2 0h-291.2V147.2h291.2v73.6" fill="#2c2c2c" p-id="1939"></path></svg>