<?xml version="1.0" standalone="no"?><!DOCTYPE svg PUBLIC "-//W3C//DTD SVG 1.1//EN" "http://www.w3.org/Graphics/SVG/1.1/DTD/svg11.dtd"><svg t="1542253386894" class="icon" style="" viewBox="0 0 1024 1024" version="1.1" xmlns="http://www.w3.org/2000/svg" p-id="5882" xmlns:xlink="http://www.w3.org/1999/xlink" width="64" height="64"><defs><style type="text/css"></style></defs><path d="M657.94048 185.55904a16.95744 16.95744 0 0 1-14.848-16.82432v-18.5856c0-9.40032-7.63904-17.02912-17.07008-17.02912h-87.83872v36.1984c0 8.5504-6.37952 15.7696-14.88896 16.82432-247.45984 29.184-291.328 206.81728-289.87392 409.1904a17.18272 17.18272 0 0 0 18.72896 16.91648c127.01696-11.49952 232.5504-5.61152 323.29728 33.54624 6.61504 2.93888 10.6496 9.73824 10.01472 16.93696v0.31744c-0.4096 4.85376-2.88768 9.29792-6.78912 12.21632a17.152 17.152 0 0 1-13.66016 3.072c-112.91648-21.6064-224.50176-16.25088-332.1856 10.43456-2.17088 0.53248-4.20864 1.47456-6.02112 2.77504L68.52608 805.5808a17.00864 17.00864 0 0 0-6.33856 18.7904l10.6496 34.69312a17.1008 17.1008 0 0 0 18.25792 11.91936c192.34816-21.31968 354.95936-18.64704 495.31904 28.84608 1.42336 0.48128 2.89792 0.78848 4.4032 0.89088 90.19392 6.18496 176.08704-60.928 266.31168-152.91392 0.94208-0.95232 1.98656-1.792 3.1232-2.49856 30.19776-18.82112 60.37504-37.61152 90.5216-56.36096 4.5568-2.83648 7.51616-7.63904 8.00768-12.97408 22.09792-246.82496-49.53088-460.65664-300.84096-490.41408z m-82.67776 281.53856c-36.44416 52.224-76.02176 83.77344-171.7248 69.96992v-3.62496c57.7536-2.85696 147.3536-63.04768 137.87136-121.84576-8.41728-52.06016-82.24768-57.15968-95.5392 6.0416h-3.6352c-3.09248-27.0336-45.80352-29.696-58.0608-6.0416-26.112 50.49344 45.94688 82.30912 62.89408 98.9184v1.20832h-7.26016C400.64 500.736 376.832 491.008 356.37248 464.6912c-29.41952-37.81632 6.9632-87.28576 35.072-97.71008 13.0048-4.83328 27.21792-0.4608 43.54048 0 2.6112-26.9312 47.8208-41.51296 83.44576-31.41632 33.04448 9.3696 60.74368 31.9488 70.144 67.55328 6.16448 23.35744-4.16768 50.87232-13.312 63.98976z" p-id="5883" fill="#d6204b"></path></svg>