<?xml version="1.0" standalone="no"?><!DOCTYPE svg PUBLIC "-//W3C//DTD SVG 1.1//EN" "http://www.w3.org/Graphics/SVG/1.1/DTD/svg11.dtd"><svg t="1542252031868" class="icon" style="" viewBox="0 0 1024 1024" version="1.1" xmlns="http://www.w3.org/2000/svg" p-id="1792" xmlns:xlink="http://www.w3.org/1999/xlink" width="64" height="64"><defs><style type="text/css"></style></defs><path d="M537.89 512m-408.61 0a408.61 408.61 0 1 0 817.22 0 408.61 408.61 0 1 0-817.22 0Z" fill="#FED547" p-id="1793"></path><path d="M537.89 103.39a412.52 412.52 0 0 0-46 2.65c204 22.88 362.59 195.86 362.59 406S695.86 895.08 491.86 918a412.52 412.52 0 0 0 46 2.65C763.56 920.61 946.5 737.67 946.5 512S763.56 103.39 537.89 103.39z" fill="#E2B742" p-id="1794"></path><path d="M696.68 380.49l-250.9 250.9-161.17-153.74a5.75 5.75 0 0 0-7.94 8.33l164.84 157.24s0.11 0.06 0.16 0.1 0.07 0.13 0.12 0.18a5.75 5.75 0 0 0 8.13 0l254.9-254.88a5.75 5.75 0 1 0-8.13-8.13z" fill="#28CA67" p-id="1795"></path><path d="M491.87 97.64C263.38 97.64 77.5 283.52 77.5 512s185.88 414.36 414.37 414.36S906.23 740.48 906.23 512 720.35 97.64 491.87 97.64z m0 817.22C269.73 914.86 89 734.14 89 512s180.73-402.86 402.87-402.86S894.72 289.86 894.72 512 714 914.86 491.87 914.86z" fill="#28CA67" p-id="1796"></path></svg>