<?xml version="1.0" standalone="no"?><!DOCTYPE svg PUBLIC "-//W3C//DTD SVG 1.1//EN" "http://www.w3.org/Graphics/SVG/1.1/DTD/svg11.dtd"><svg t="1542252012455" class="icon" style="" viewBox="0 0 1024 1024" version="1.1" xmlns="http://www.w3.org/2000/svg" p-id="1658" xmlns:xlink="http://www.w3.org/1999/xlink" width="64" height="64"><defs><style type="text/css"></style></defs><path d="M535.99 512m-378.68 0a378.68 378.68 0 1 0 757.36 0 378.68 378.68 0 1 0-757.36 0Z" fill="#FED547" p-id="1659"></path><path d="M536 133.32a382.31 382.31 0 0 0-42.65 2.45c189 21.2 336 181.51 336 376.23s-147 355-336 376.23a382.31 382.31 0 0 0 42.65 2.45c209.14 0 378.68-169.54 378.68-378.68S745.13 133.32 536 133.32z" fill="#E2B742" p-id="1660"></path><path d="M664.91 517.33H330.85a5.33 5.33 0 1 1 0-10.66h334.06a5.33 5.33 0 1 1 0 10.66z" fill="#28CA67" p-id="1661"></path><path d="M493.34 896c-211.74 0-384-172.27-384-384s172.27-384 384-384 384 172.26 384 384-172.26 384-384 384z m0-757.36C287.48 138.65 120 306.14 120 512s167.48 373.35 373.34 373.35S866.69 717.86 866.69 512 699.2 138.65 493.34 138.65z" fill="#28CA67" p-id="1662"></path></svg>