<?xml version="1.0" standalone="no"?><!DOCTYPE svg PUBLIC "-//W3C//DTD SVG 1.1//EN" "http://www.w3.org/Graphics/SVG/1.1/DTD/svg11.dtd"><svg t="1543404592665" class="icon" style="" viewBox="0 0 1024 1024" version="1.1" xmlns="http://www.w3.org/2000/svg" p-id="4794" xmlns:xlink="http://www.w3.org/1999/xlink" width="16" height="16"><defs><style type="text/css"></style></defs><path d="M604.1 281.8h-184v-103c0-40.3 32.7-73 73-73h38c40.3 0 73 32.7 73 73v103z m-128-56h72v-47c0-9.4-7.6-17-17-17h-38c-9.4 0-17 7.6-17 17v47z" fill="#2c2c2c" p-id="4795"></path><path d="M917 918.2H107c-40.3 0-73-32.7-73-73V298.9c0-40.3 32.7-73 73-73h810c40.3 0 73 32.7 73 73v546.3c0 40.2-32.7 73-73 73zM107 281.9c-9.4 0-17 7.6-17 17v546.3c0 9.4 7.6 17 17 17h810c9.4 0 17-7.6 17-17V298.9c0-9.4-7.6-17-17-17H107z" fill="#2c2c2c" p-id="4796"></path><path d="M608.3 489.6H864v56H608.3zM608.3 646H864v56H608.3zM342 642.8c-70.6 0-128-57.4-128-128s57.4-128 128-128 128 57.4 128 128-57.4 128-128 128z m0-200c-39.7 0-72 32.3-72 72s32.3 72 72 72 72-32.3 72-72-32.3-72-72-72z" fill="#2c2c2c" p-id="4797"></path><path d="M520 764.8h-56c0-67.3-54.7-122-122-122s-122 54.7-122 122h-56c0-98.1 79.9-178 178-178s178 79.8 178 178z" fill="#2c2c2c" p-id="4798"></path></svg>