<?xml version="1.0" standalone="no"?><!DOCTYPE svg PUBLIC "-//W3C//DTD SVG 1.1//EN" "http://www.w3.org/Graphics/SVG/1.1/DTD/svg11.dtd"><svg t="1542253164136" class="icon" style="" viewBox="0 0 1024 1024" version="1.1" xmlns="http://www.w3.org/2000/svg" p-id="4110" xmlns:xlink="http://www.w3.org/1999/xlink" width="64" height="64"><defs><style type="text/css"></style></defs><path d="M874.976976 954.068278 142.882936 954.068278c-42.556955 0-77.062207-34.503838-77.062207-77.060073L65.820728 299.063283c0-42.556235 34.505252-77.060073 77.062207-77.060073l231.187645 0L374.070581 260.533758 142.882936 260.533758c-21.278478 0-38.531104 17.251919-38.531104 38.529525l0 577.944921c0 21.278629 17.252626 38.529525 38.531104 38.529525l732.09404 0c21.279501 0 38.531104-17.250896 38.531104-38.529525L913.508079 299.063283c0-21.277606-17.251603-38.529525-38.531104-38.529525L643.78933 260.533758l0-38.529525 231.187645 0c42.557979 0 77.063231 34.503838 77.063231 77.060073l0 577.944921C952.039183 919.564439 917.534954 954.068278 874.976976 954.068278zM585.992675 491.711931l192.656542 0c10.647937 0 19.265552 8.616238 19.265552 19.264762 0 10.647501-8.617615 19.264762-19.265552 19.264762L585.992675 530.241456c-10.63054 0-19.265552-8.617261-19.265552-19.264762C566.727123 500.32817 575.362134 491.711931 585.992675 491.711931zM585.992675 722.890105l77.062207 0c10.648961 0 19.265552 8.616238 19.265552 19.264762 0 10.647501-8.616591 19.264762-19.265552 19.264762l-77.062207 0c-10.63054 0-19.265552-8.617261-19.265552-19.264762C566.727123 731.506343 575.362134 722.890105 585.992675 722.890105zM585.992675 607.300506l192.656542 0c10.647937 0 19.265552 8.635681 19.265552 19.264762 0 10.648524-8.617615 19.264762-19.265552 19.264762L585.992675 645.830031c-10.63054 0-19.265552-8.616238-19.265552-19.264762C566.727123 615.936187 575.362134 607.300506 585.992675 607.300506zM354.805029 414.651858c63.835433 0 115.593311 69.007677 115.593311 154.119123 0 32.377408-7.525702 62.384839-20.300157 87.180572 23.49812 13.20679 39.565709 38.058804 39.565709 66.937528 0 42.556235-34.505252 77.060073-77.062207 77.060073L297.00735 799.949154c-42.556955 0-77.062207-34.503838-77.062207-77.060073 0-28.878724 16.067589-53.730739 39.585152-66.937528-12.793898-24.795732-20.318577-54.804187-20.318577-87.180572C239.210695 483.659535 290.968573 414.651858 354.805029 414.651858zM354.805029 453.181383c-42.557979 0-77.063231 51.755758-77.063231 115.589598s34.505252 115.588575 77.063231 115.588575c42.556955 0 77.062207-51.754734 77.062207-115.588575S397.361984 453.181383 354.805029 453.181383zM258.476247 722.890105c0 21.277606 17.252626 38.529525 38.531104 38.529525l115.594334 0c21.278478 0 38.531104-17.251919 38.531104-38.529525 0-15.690354-9.406616-29.123294-22.85955-35.123962-19.961429 21.936615-45.567645 35.123962-73.468209 35.123962-27.901587 0-53.489383-13.18837-73.469232-35.123962C267.882863 693.76681 258.476247 707.199751 258.476247 722.890105zM624.523778 337.592808 393.336133 337.592808c-10.648961 0-19.265552-8.616238-19.265552-19.264762 0-10.630105 8.616591-19.264762 19.265552-19.264762l19.265552 0L412.601685 260.533758l0-38.529525 0-19.264762 0-38.529525c0-53.203736 43.121843-96.323812 96.327759-96.323812s96.328783 43.120077 96.328783 96.323812l0 38.529525 0 19.264762L605.258227 260.533758l0 38.529525 19.265552 0c10.647937 0 19.264528 8.634658 19.264528 19.264762C643.78933 328.97657 635.172739 337.592808 624.523778 337.592808zM566.727123 260.533758l0-38.529525 0-19.264762 0-38.529525c0-31.92613-25.869217-57.795311-57.797679-57.795311s-57.796656 25.868157-57.796656 57.795311l0 38.529525 0 19.264762L451.132788 260.533758l0 38.529525 115.594334 0L566.727123 260.533758zM508.929444 183.473685c-10.648961 0-19.265552-8.616238-19.265552-19.264762 0-10.630105 8.616591-19.264762 19.265552-19.264762s19.265552 8.634658 19.265552 19.264762C528.196019 174.857447 519.579428 183.473685 508.929444 183.473685z" p-id="4111" fill="#0a7c26"></path></svg>