<?xml version="1.0" standalone="no"?><!DOCTYPE svg PUBLIC "-//W3C//DTD SVG 1.1//EN" "http://www.w3.org/Graphics/SVG/1.1/DTD/svg11.dtd"><svg t="1542252047376" class="icon" style="" viewBox="0 0 1024 1024" version="1.1" xmlns="http://www.w3.org/2000/svg" p-id="1926" xmlns:xlink="http://www.w3.org/1999/xlink" width="64" height="64"><defs><style type="text/css"></style></defs><path d="M537.86 512m-408.1 0a408.1 408.1 0 1 0 816.2 0 408.1 408.1 0 1 0-816.2 0Z" fill="#FED547" p-id="1927"></path><path d="M537.86 103.9a412 412 0 0 0-46 2.65C695.63 129.39 854 302.16 854 512S695.63 894.61 491.89 917.46a412 412 0 0 0 46 2.65C763.25 920.1 946 737.39 946 512S763.25 103.9 537.86 103.9z" fill="#E2B742" p-id="1928"></path><path d="M418.06 326a5.75 5.75 0 0 0-5.75 5.73l-1.17 360a5.75 5.75 0 0 0 5.73 5.76 5.75 5.75 0 0 0 5.75-5.73l1.17-360a5.75 5.75 0 0 0-5.73-5.76zM550.2 326.42a5.75 5.75 0 0 0-5.75 5.73l-1.17 360a5.75 5.75 0 0 0 5.73 5.76 5.75 5.75 0 0 0 5.75-5.73l1.17-360a5.75 5.75 0 0 0-5.73-5.76z" fill="#28CA67" p-id="1929"></path><path d="M491.89 98.15C263.69 98.15 78 283.8 78 512s185.69 413.85 413.89 413.85S905.74 740.19 905.74 512 720.09 98.15 491.89 98.15z m0 816.2C270 914.36 89.53 733.86 89.53 512S270 109.64 491.89 109.64 894.25 290.14 894.25 512s-180.5 402.36-402.36 402.36z" fill="#28CA67" p-id="1930"></path></svg>