<?xml version="1.0" standalone="no"?><!DOCTYPE svg PUBLIC "-//W3C//DTD SVG 1.1//EN" "http://www.w3.org/Graphics/SVG/1.1/DTD/svg11.dtd"><svg t="1542113400478" class="icon" style="" viewBox="0 0 1024 1024" version="1.1" xmlns="http://www.w3.org/2000/svg" p-id="2634" xmlns:xlink="http://www.w3.org/1999/xlink" width="64" height="64"><defs><style type="text/css"></style></defs><path d="M767.817 362.322h-42.636V277.05c0-117.676-95.505-213.181-213.181-213.181S298.819 159.374 298.819 277.05v85.272h-42.636c-46.9 0-85.272 38.373-85.272 85.272v426.362c0 46.9 38.373 85.272 85.272 85.272h511.635c46.9 0 85.272-38.373 85.272-85.272V447.594c0-46.9-38.373-85.272-85.273-85.272zM512 746.048c-46.9 0-85.272-38.373-85.272-85.272S465.1 575.503 512 575.503s85.272 38.373 85.272 85.272S558.9 746.048 512 746.048z m132.172-383.726H379.828V277.05c0-72.908 59.264-132.172 132.172-132.172s132.172 59.264 132.172 132.172v85.272z" p-id="2635" fill="#2c2c2c"></path></svg>