<?xml version="1.0" standalone="no"?><!DOCTYPE svg PUBLIC "-//W3C//DTD SVG 1.1//EN" "http://www.w3.org/Graphics/SVG/1.1/DTD/svg11.dtd"><svg t="1555938604064" class="icon" style="" viewBox="0 0 1030 1024" version="1.1" xmlns="http://www.w3.org/2000/svg" p-id="1108" xmlns:xlink="http://www.w3.org/1999/xlink" width="201.171875" height="200"><defs><style type="text/css"></style></defs><path d="M341.333333 590.933333a128 128 0 1 1 128-128 128 128 0 0 1-128 128z m0-213.333333a85.333333 85.333333 0 1 0 85.333334 85.333333 85.333333 85.333333 0 0 0-85.333334-85.333333z" p-id="1109"></path><path d="M490.666667 761.6a21.333333 21.333333 0 0 1-21.333334-21.333333 128 128 0 0 0-256 0 21.76 21.76 0 0 1-21.333333 21.333333 21.333333 21.333333 0 0 1-21.333333-21.333333 170.666667 170.666667 0 0 1 341.333333 0 21.76 21.76 0 0 1-21.333333 21.333333z" p-id="1110"></path><path d="M981.333333 932.266667h-938.666666a42.666667 42.666667 0 0 1-42.666667-42.666667v-640a42.666667 42.666667 0 0 1 42.666667-42.666667h938.666666a42.666667 42.666667 0 0 1 42.666667 42.666667v640a42.666667 42.666667 0 0 1-42.666667 42.666667z m-896-85.333334h853.333334v-554.666666h-853.333334zM640 164.266667h-213.333333a42.666667 42.666667 0 0 1 0-85.333334h213.333333a42.666667 42.666667 0 0 1 0 85.333334z" p-id="1111"></path><path d="M810.666667 484.266667h-213.333334a21.333333 21.333333 0 0 1-21.333333-21.333334 21.333333 21.333333 0 0 1 21.333333-21.333333h213.333334a21.333333 21.333333 0 0 1 21.333333 21.333333 21.76 21.76 0 0 1-21.333333 21.333334zM739.413333 654.933333h-142.08a21.333333 21.333333 0 0 1-21.333333-21.333333 21.333333 21.333333 0 0 1 21.333333-21.333333h142.08a21.333333 21.333333 0 0 1 21.333334 21.333333 21.76 21.76 0 0 1-21.333334 21.333333z" p-id="1112"></path></svg>