<?xml version="1.0" standalone="no"?><!DOCTYPE svg PUBLIC "-//W3C//DTD SVG 1.1//EN" "http://www.w3.org/Graphics/SVG/1.1/DTD/svg11.dtd"><svg t="1542253333706" class="icon" style="" viewBox="0 0 1024 1024" version="1.1" xmlns="http://www.w3.org/2000/svg" p-id="4578" xmlns:xlink="http://www.w3.org/1999/xlink" width="64" height="64"><defs><style type="text/css"></style></defs><path d="M670.022531 170.664333c44.246309 0 82.171716-37.925407 82.171716-82.171716S714.26884 0 670.022531 0s-82.171716 37.925407-82.171716 82.171716 37.925407 88.492617 82.171716 88.492617zM891.253074 385.573975h-44.246308S745.873346 328.685864 701.627037 265.476852c0 0-18.962704-69.528914-158.022531-69.528914H328.692864c-18.962704 0-37.925407 37.925407-37.925407 37.925408L183.315136 417.178482s-25.283605 56.889111 18.962703 56.889111c0 0 31.604506 6.319901 50.56721-25.284605l82.170716-113.776222s12.641802-25.283605 31.604507-25.283605h69.529913s25.283605-6.319901 18.962704 18.962703c0 0-69.528914 101.13442-82.171716 189.627037v227.552445s0 31.603506-25.283605 37.924407H145.388728s-56.889111-6.319901-56.889111 50.56721c0 0 0 50.56721 56.889111 50.56721h284.439556c31.604506 0 37.925407-101.13442 37.925407-101.13442s6.320901-145.379728 31.604507-107.454321c0 0 120.097123 233.872346 164.343432 303.40226 0 0 6.319901 44.246309 56.888111 44.246308 0 0 56.887111-12.641802 44.246308-50.56721L587.850815 562.55921V518.311901l56.888111-132.737926s25.283605-31.605506 44.246309-6.321901c0 0 31.604506 37.925407 126.418024 88.492617h82.170716s44.246309 0 44.246309-44.246308c-6.319901 6.320901 0-31.604506-50.56721-37.925408z" fill="#efb336" p-id="4579"></path></svg>